<svg width="26" height="25" viewBox="0 0 26 25" version="1.1" xmlns="http://www.w3.org/2000/svg" xmlns:xlink="http://www.w3.org/1999/xlink" xmlns:figma="http://www.figma.com/figma/ns">
<title>Heart</title>
<desc>Created using Figma</desc>
<g id="Canvas" transform="translate(-935 -1953)" figma:type="canvas">
<g id="Heart" style="mix-blend-mode:normal;" figma:type="vector">
<use xlink:href="#path0_fill" transform="translate(936.25 1954.31)" fill="#EB5757" style="mix-blend-mode:normal;"/>
<use xlink:href="#path1_stroke" transform="translate(936.25 1954.31)" fill="#FFFFFF" style="mix-blend-mode:normal;"/>
</g>
</g>
<defs>
<path id="path0_fill" d="M 11.9114 23C 9.64257 23 1.34943 16.6563 0 7.15556C 0 5.11111 0 0 5.67212 0C 10.2098 0 11.9114 6.13333 11.9114 6.13333C 11.9114 6.13333 13.6131 0 18.718 0C 23.8229 0 24.39 2.55556 23.8228 7.15556C 23.2556 11.7556 14.1803 23 11.9114 23Z"/>
<path id="path1_stroke" d="M 0 7.15556L -0.5 7.15556L -0.5 7.19089L -0.495032 7.22587L 0 7.15556ZM 23.8228 7.15556L 24.3191 7.21674L 24.3191 7.21674L 23.8228 7.15556ZM 11.9114 6.13333L 11.4296 6.267L 11.9114 8.0036L 12.3932 6.267L 11.9114 6.13333ZM -0.495032 7.22587C 0.203991 12.0745 2.68511 16.1667 5.24124 18.9772C 6.52689 20.3875 7.86509 21.5171 9.006 22.2767C 9.58207 22.6593 10.137 22.9659 10.606 23.1682C 11.0769 23.3707 11.5281 23.5 11.9114 23.5L 11.9114 22.5C 11.7276 22.5 11.4233 22.4311 11.0011 22.2495C 10.577 22.0678 10.1013 21.8046 9.55972 21.444C 8.46538 20.7173 7.22054 19.6672 5.98062 18.3039C 3.48561 15.5674 1.14544 11.7374 0.495032 7.08525L -0.495032 7.22587ZM 11.9114 23.5C 12.3595 23.5 12.8604 23.2417 13.3321 22.9216C 13.8196 22.59 14.3945 22.1064 14.9954 21.5327C 16.1894 20.3915 17.579 18.8144 18.9005 17.109C 20.221 15.4043 21.4994 13.5379 22.4762 11.8188C 23.4472 10.109 24.1644 8.47095 24.3191 7.21674L 23.3266 7.09437C 23.1976 8.14017 22.5677 9.63268 21.6067 11.325C 20.6514 13.0079 19.4129 14.8152 18.11 16.4966C 16.8082 18.1773 15.4681 19.6988 14.3046 20.8096C 13.7267 21.362 13.216 21.7928 12.7707 22.0941C 12.3096 22.4069 12.0306 22.5 11.9114 22.5L 11.9114 23.5ZM 24.3191 7.21674C 24.6012 4.92874 24.6333 2.97731 23.8292 1.60061C 22.985 0.155357 21.3342 -0.5 18.718 -0.5L 18.718 0.5C 21.2066 0.5 22.3918 1.12242 22.9657 2.10495C 23.5796 3.15603 23.6117 4.78238 23.3266 7.09437L 24.3191 7.21674ZM 18.718 -0.5C 15.9349 -0.5 14.1006 1.17979 12.9895 2.7817C 12.437 3.58091 12.0405 4.39467 11.7955 4.98289C 11.6713 5.28157 11.5789 5.53744 11.5207 5.71016C 11.4909 5.79865 11.4679 5.87139 11.4536 5.91851C 11.4461 5.94308 11.44 5.96346 11.4364 5.97609C 11.4344 5.98291 11.4327 5.98882 11.4317 5.99227C 11.4312 5.99424 11.4306 5.99609 11.4304 5.99708C 11.4302 5.9977 11.43 5.99834 11.4299 5.99865C 11.4299 5.99887 11.4298 5.99912 11.4298 5.99923C 11.4297 5.99946 11.4296 5.99966 11.9114 6.13333C 12.3932 6.267 12.3932 6.26716 12.3932 6.2673C 12.3931 6.26731 12.3931 6.26743 12.3931 6.26745C 12.3931 6.26752 12.3931 6.26748 12.3931 6.26735C 12.3933 6.26685 12.3934 6.26648 12.3937 6.26551C 12.3944 6.26306 12.3952 6.26017 12.3966 6.25538C 12.3996 6.24481 12.4038 6.23074 12.41 6.2104C 12.423 6.16768 12.4416 6.10864 12.4684 6.02942C 12.5231 5.86673 12.6035 5.64343 12.7187 5.36711C 12.9523 4.80533 13.3002 4.08576 13.8112 3.35163C 14.8272 1.88687 16.3961 0.5 18.718 0.5L 18.718 -0.5ZM 11.9114 6.13333C 12.3932 5.99966 12.3932 5.99948 12.3931 5.99927C 12.3931 5.99917 12.393 5.99894 12.393 5.99873C 12.3929 5.99844 12.3927 5.99783 12.3926 5.99724C 12.3923 5.99628 12.3918 5.99451 12.3912 5.9926C 12.3903 5.9892 12.3886 5.98346 12.3867 5.97675C 12.3831 5.96423 12.3772 5.9442 12.3698 5.91986C 12.3557 5.87297 12.3333 5.80098 12.3042 5.71298C 12.2473 5.54078 12.1579 5.28658 12.0388 4.98901C 11.8034 4.40201 11.4276 3.59195 10.9131 2.79495C 9.88644 1.20898 8.1951 -0.5 5.67212 -0.5L 5.67212 0.5C 7.68682 0.5 9.11514 1.85769 10.0737 3.33838C 10.5518 4.07472 10.8851 4.79799 11.1105 5.36099C 11.2218 5.63842 11.3008 5.86338 11.3547 6.0266C 11.381 6.10631 11.3996 6.16609 11.4126 6.20905C 11.4188 6.22962 11.423 6.24404 11.4261 6.25472C 11.4275 6.25962 11.4284 6.26268 11.4291 6.26518C 11.4294 6.26621 11.4295 6.26666 11.4297 6.26719C 11.4297 6.26734 11.4298 6.26745 11.4297 6.26737C 11.4297 6.26736 11.4297 6.26726 11.4297 6.26726C 11.4297 6.26714 11.4296 6.267 11.9114 6.13333ZM 5.67212 -0.5C 2.64035 -0.5 1.04566 0.891763 0.255185 2.60126C -0.506569 4.24865 -0.5 6.14597 -0.5 7.15556L 0.5 7.15556C 0.5 6.1207 0.506569 4.44024 1.16285 3.02096C 1.7904 1.66379 3.03177 0.5 5.67212 0.5L 5.67212 -0.5Z"/>
</defs>
</svg>
