<svg width="233" height="309" viewBox="0 0 233 309" version="1.1" xmlns="http://www.w3.org/2000/svg" xmlns:xlink="http://www.w3.org/1999/xlink" xmlns:figma="http://www.figma.com/figma/ns">
<title>Group</title>
<desc>Created using Figma</desc>
<g id="Canvas" transform="translate(-1328 -1417)" figma:type="canvas">
<g id="Group" style="mix-blend-mode:normal;" figma:type="frame">
<g id="Vector" style="mix-blend-mode:normal;" figma:type="vector">
<use xlink:href="#path0_fill" transform="translate(1375.44 1463.82)" style="mix-blend-mode:normal;"/>
</g>
<g id="Vector" style="mix-blend-mode:normal;" figma:type="vector">
<use xlink:href="#path1_fill" transform="translate(1427.24 1531.75)" style="mix-blend-mode:normal;"/>
</g>
<g id="Vector" style="mix-blend-mode:normal;" figma:type="vector">
<use xlink:href="#path2_fill" transform="translate(1391.54 1531.75)" style="mix-blend-mode:normal;"/>
</g>
<g id="Vector" style="mix-blend-mode:normal;" figma:type="vector">
<use xlink:href="#path3_fill" transform="translate(1328.62 1417)" style="mix-blend-mode:normal;"/>
</g>
</g>
</g>
<defs>
<path id="path0_fill" d="M 16.1772 51.4927C 16.2386 51.4719 22.042 49.6897 22.042 49.6897C 26.2109 48.41 30.6513 50.6198 32.1443 54.7169L 40.0878 76.5134L 48.0313 54.7159C 49.5264 50.6188 53.9741 48.411 58.1336 49.6897C 58.1336 49.6897 63.937 51.4719 63.9984 51.4927C 72.6483 54.3746 78.8023 61.8062 80.1756 70.6049L 80.1756 5.99273C 80.1756 2.6832 77.4924 1.4785e-14 74.1829 1.4785e-14L 5.99273 1.4785e-14C 2.6832 1.4785e-14 -4.43551e-14 2.6832 -4.43551e-14 5.99273L -4.43551e-14 70.6049C 1.37333 61.8062 7.52733 54.3757 16.1772 51.4927L 16.1772 51.4927ZM 40.0878 8.70506C 50.7363 8.70506 59.4008 17.3685 59.4008 28.0181C 59.4008 38.6666 50.7374 47.3311 40.0878 47.3311C 29.4382 47.3311 20.7748 38.6677 20.7748 28.0181C 20.7758 17.3685 29.4393 8.70506 40.0878 8.70506L 40.0878 8.70506Z"/>
<path id="path1_fill" d="M 8.86008 -3.04806e-06L -3.55607e-06 24.3111L 12.2872 24.3111L 12.2872 6.40681C 12.2872 3.78499 10.9669 1.40246 8.86008 -3.04806e-06L 8.86008 -3.04806e-06Z"/>
<path id="path2_fill" d="M 1.84154e-06 6.40681L 1.84154e-06 24.3111L 12.2872 24.3111L 3.42709 -3.04806e-06C 1.32027 1.40246 1.84154e-06 3.78499 1.84154e-06 6.40681L 1.84154e-06 6.40681Z"/>
<path id="path3_fill" d="M 220.826 0L 10.9242 0C 4.89094 0 0 4.89094 0 10.9242L 0 298.076C 0 304.109 4.89094 309 10.9242 309L 220.826 309C 226.859 309 231.75 304.109 231.75 298.076L 231.75 10.9242C 231.75 4.89094 226.859 0 220.826 0ZM 30.4318 38.625C 30.4318 34.1003 34.1003 30.4318 38.625 30.4318L 135.187 30.4318C 139.713 30.4318 143.38 34.1003 143.38 38.625L 143.38 147.258C 143.38 151.782 139.713 155.451 135.187 155.451L 38.625 155.451C 34.1003 155.451 30.4318 151.782 30.4318 147.258L 30.4318 38.625L 30.4318 38.625ZM 193.125 259.256L 38.625 259.256C 34.1003 259.256 30.4318 255.588 30.4318 251.063C 30.4318 246.538 34.1003 242.87 38.625 242.87L 193.125 242.87C 197.65 242.87 201.318 246.538 201.318 251.063C 201.318 255.588 197.65 259.256 193.125 259.256ZM 193.125 201.318L 38.625 201.318C 34.1003 201.318 30.4318 197.65 30.4318 193.125C 30.4318 188.6 34.1003 184.932 38.625 184.932L 193.125 184.932C 197.65 184.932 201.318 188.6 201.318 193.125C 201.318 197.65 197.65 201.318 193.125 201.318ZM 193.125 124.068L 173.812 124.068C 169.287 124.068 165.619 120.4 165.619 115.875C 165.619 111.35 169.287 107.682 173.812 107.682L 193.125 107.682C 197.65 107.682 201.318 111.35 201.318 115.875C 201.318 120.4 197.65 124.068 193.125 124.068ZM 193.125 85.4432L 173.812 85.4432C 169.287 85.4432 165.619 81.7747 165.619 77.25C 165.619 72.7253 169.287 69.0568 173.812 69.0568L 193.125 69.0568C 197.65 69.0568 201.318 72.7253 201.318 77.25C 201.318 81.7747 197.65 85.4432 193.125 85.4432Z"/>
</defs>
</svg>
