<svg width="309" height="309" viewBox="0 0 309 309" version="1.1" xmlns="http://www.w3.org/2000/svg" xmlns:xlink="http://www.w3.org/1999/xlink" xmlns:figma="http://www.figma.com/figma/ns">
<title>twitter-logo-on-black-background</title>
<desc>Created using Figma</desc>
<g id="Canvas" transform="translate(-1290 -1074)" figma:type="canvas">
<g id="twitter-logo-on-black-background" style="mix-blend-mode:normal;" figma:type="frame">
<g id="Group" style="mix-blend-mode:normal;" figma:type="frame">
<g id="post-twitter" style="mix-blend-mode:normal;" figma:type="frame">
<g id="Vector" style="mix-blend-mode:normal;" figma:type="vector">
<use xlink:href="#path0_fill" transform="translate(1290 1074)" style="mix-blend-mode:normal;"/>
</g>
</g>
</g>
<mask id="mask0_alpha" mask-type="alpha">
<path d="M 1290 1074L 1350.59 1074L 1350.59 1134.59L 1290 1134.59L 1290 1074Z" fill="#FFFFFF"/>
</mask>
<g id="Group" style="mix-blend-mode:normal;" mask="url(#mask0_alpha)" figma:type="frame">
</g>
<mask id="mask1_alpha" mask-type="alpha">
<path d="M 1290 1074L 1350.59 1074L 1350.59 1134.59L 1290 1134.59L 1290 1074Z" fill="#FFFFFF"/>
</mask>
<g id="Group" style="mix-blend-mode:normal;" mask="url(#mask1_alpha)" figma:type="frame">
</g>
<mask id="mask2_alpha" mask-type="alpha">
<path d="M 1290 1074L 1350.59 1074L 1350.59 1134.59L 1290 1134.59L 1290 1074Z" fill="#FFFFFF"/>
</mask>
<g id="Group" style="mix-blend-mode:normal;" mask="url(#mask2_alpha)" figma:type="frame">
</g>
<mask id="mask3_alpha" mask-type="alpha">
<path d="M 1290 1074L 1350.59 1074L 1350.59 1134.59L 1290 1134.59L 1290 1074Z" fill="#FFFFFF"/>
</mask>
<g id="Group" style="mix-blend-mode:normal;" mask="url(#mask3_alpha)" figma:type="frame">
</g>
<mask id="mask4_alpha" mask-type="alpha">
<path d="M 1290 1074L 1350.59 1074L 1350.59 1134.59L 1290 1134.59L 1290 1074Z" fill="#FFFFFF"/>
</mask>
<g id="Group" style="mix-blend-mode:normal;" mask="url(#mask4_alpha)" figma:type="frame">
</g>
<mask id="mask5_alpha" mask-type="alpha">
<path d="M 1290 1074L 1350.59 1074L 1350.59 1134.59L 1290 1134.59L 1290 1074Z" fill="#FFFFFF"/>
</mask>
<g id="Group" style="mix-blend-mode:normal;" mask="url(#mask5_alpha)" figma:type="frame">
</g>
<mask id="mask6_alpha" mask-type="alpha">
<path d="M 1290 1074L 1350.59 1074L 1350.59 1134.59L 1290 1134.59L 1290 1074Z" fill="#FFFFFF"/>
</mask>
<g id="Group" style="mix-blend-mode:normal;" mask="url(#mask6_alpha)" figma:type="frame">
</g>
<mask id="mask7_alpha" mask-type="alpha">
<path d="M 1290 1074L 1350.59 1074L 1350.59 1134.59L 1290 1134.59L 1290 1074Z" fill="#FFFFFF"/>
</mask>
<g id="Group" style="mix-blend-mode:normal;" mask="url(#mask7_alpha)" figma:type="frame">
</g>
<mask id="mask8_alpha" mask-type="alpha">
<path d="M 1290 1074L 1350.59 1074L 1350.59 1134.59L 1290 1134.59L 1290 1074Z" fill="#FFFFFF"/>
</mask>
<g id="Group" style="mix-blend-mode:normal;" mask="url(#mask8_alpha)" figma:type="frame">
</g>
<mask id="mask9_alpha" mask-type="alpha">
<path d="M 1290 1074L 1350.59 1074L 1350.59 1134.59L 1290 1134.59L 1290 1074Z" fill="#FFFFFF"/>
</mask>
<g id="Group" style="mix-blend-mode:normal;" mask="url(#mask9_alpha)" figma:type="frame">
</g>
<mask id="mask10_alpha" mask-type="alpha">
<path d="M 1290 1074L 1350.59 1074L 1350.59 1134.59L 1290 1134.59L 1290 1074Z" fill="#FFFFFF"/>
</mask>
<g id="Group" style="mix-blend-mode:normal;" mask="url(#mask10_alpha)" figma:type="frame">
</g>
<mask id="mask11_alpha" mask-type="alpha">
<path d="M 1290 1074L 1350.59 1074L 1350.59 1134.59L 1290 1134.59L 1290 1074Z" fill="#FFFFFF"/>
</mask>
<g id="Group" style="mix-blend-mode:normal;" mask="url(#mask11_alpha)" figma:type="frame">
</g>
<mask id="mask12_alpha" mask-type="alpha">
<path d="M 1290 1074L 1350.59 1074L 1350.59 1134.59L 1290 1134.59L 1290 1074Z" fill="#FFFFFF"/>
</mask>
<g id="Group" style="mix-blend-mode:normal;" mask="url(#mask12_alpha)" figma:type="frame">
</g>
<mask id="mask13_alpha" mask-type="alpha">
<path d="M 1290 1074L 1350.59 1074L 1350.59 1134.59L 1290 1134.59L 1290 1074Z" fill="#FFFFFF"/>
</mask>
<g id="Group" style="mix-blend-mode:normal;" mask="url(#mask13_alpha)" figma:type="frame">
</g>
<mask id="mask14_alpha" mask-type="alpha">
<path d="M 1290 1074L 1350.59 1074L 1350.59 1134.59L 1290 1134.59L 1290 1074Z" fill="#FFFFFF"/>
</mask>
<g id="Group" style="mix-blend-mode:normal;" mask="url(#mask14_alpha)" figma:type="frame">
</g>
</g>
</g>
<defs>
<path id="path0_fill" d="M 278.1 0L 30.9 0C 13.905 0 0 13.905 0 30.9L 0 278.1C 0 295.095 13.905 309 30.9 309L 278.1 309C 295.095 309 309 295.095 309 278.1L 309 30.9C 309 13.905 295.095 0 278.1 0ZM 242.565 112.785C 241.02 183.855 196.215 233.295 128.235 236.385C 100.425 237.93 80.34 228.66 61.8 217.845C 81.885 220.936 108.15 213.211 122.055 200.85C 101.97 199.305 89.61 188.49 83.43 171.495C 89.61 173.04 95.79 171.495 100.425 171.495C 81.885 165.315 69.525 154.5 67.98 129.78C 72.615 132.87 78.795 134.415 84.975 134.415C 71.07 126.69 61.8 97.335 72.615 78.795C 92.7 100.425 117.42 118.965 157.59 122.055C 146.775 78.795 205.486 55.62 228.661 84.975C 239.476 83.43 247.201 78.795 254.926 75.705C 251.836 86.52 245.656 92.7 237.931 98.88C 245.656 97.335 253.381 95.79 259.561 92.7C 258.015 100.425 250.29 106.605 242.565 112.785Z"/>
</defs>
</svg>
